<?xml version="1.0" encoding="UTF-8"?>
<svg xmlns="http://www.w3.org/2000/svg" version="1.1" width="100" height="100" viewBox="0 0 100 100"><rect x="0" y="0" width="100" height="100" fill="#ffffff"/><g transform="scale(4.762)"><g transform="translate(0,0)"><path fill-rule="evenodd" d="M8 0L8 2L9 2L9 4L8 4L8 9L7 9L7 8L5 8L5 9L3 9L3 8L0 8L0 9L2 9L2 10L1 10L1 11L0 11L0 12L2 12L2 13L8 13L8 14L9 14L9 12L10 12L10 13L11 13L11 16L10 16L10 17L9 17L9 18L8 18L8 21L9 21L9 20L10 20L10 21L13 21L13 20L11 20L11 19L15 19L15 21L16 21L16 19L17 19L17 21L18 21L18 19L21 19L21 18L18 18L18 15L17 15L17 14L19 14L19 13L18 13L18 11L17 11L17 10L19 10L19 9L20 9L20 16L21 16L21 8L19 8L19 9L17 9L17 8L11 8L11 5L13 5L13 3L12 3L12 2L13 2L13 0ZM10 1L10 2L11 2L11 1ZM10 3L10 4L9 4L9 7L10 7L10 5L11 5L11 3ZM12 6L12 7L13 7L13 6ZM5 9L5 10L2 10L2 12L3 12L3 11L4 11L4 12L8 12L8 10L9 10L9 11L11 11L11 9L10 9L10 10L9 10L9 9L8 9L8 10L7 10L7 9ZM15 9L15 10L16 10L16 9ZM6 10L6 11L7 11L7 10ZM12 11L12 12L13 12L13 15L12 15L12 16L13 16L13 18L15 18L15 19L16 19L16 17L15 17L15 15L16 15L16 14L15 14L15 11ZM14 14L14 15L15 15L15 14ZM8 15L8 16L9 16L9 15ZM9 18L9 19L11 19L11 18ZM20 20L20 21L21 21L21 20ZM0 0L0 7L7 7L7 0ZM1 1L1 6L6 6L6 1ZM2 2L2 5L5 5L5 2ZM14 0L14 7L21 7L21 0ZM15 1L15 6L20 6L20 1ZM16 2L16 5L19 5L19 2ZM0 14L0 21L7 21L7 14ZM1 15L1 20L6 20L6 15ZM2 16L2 19L5 19L5 16Z" fill="#000000"/></g></g></svg>
