<?xml version="1.0" encoding="UTF-8"?>
<svg xmlns="http://www.w3.org/2000/svg" version="1.1" width="100" height="100" viewBox="0 0 100 100"><rect x="0" y="0" width="100" height="100" fill="#ffffff"/><g transform="scale(4.762)"><g transform="translate(0,0)"><path fill-rule="evenodd" d="M9 0L9 3L8 3L8 5L9 5L9 4L10 4L10 7L9 7L9 6L8 6L8 7L9 7L9 9L8 9L8 8L5 8L5 9L3 9L3 10L2 10L2 8L0 8L0 11L1 11L1 13L3 13L3 12L4 12L4 13L5 13L5 12L6 12L6 13L7 13L7 12L6 12L6 11L10 11L10 12L8 12L8 16L9 16L9 17L10 17L10 16L12 16L12 17L11 17L11 20L12 20L12 21L17 21L17 20L19 20L19 21L20 21L20 20L19 20L19 19L21 19L21 18L19 18L19 17L21 17L21 16L19 16L19 15L20 15L20 14L21 14L21 11L20 11L20 10L19 10L19 11L18 11L18 8L16 8L16 9L17 9L17 11L16 11L16 10L15 10L15 14L17 14L17 16L19 16L19 17L16 17L16 15L14 15L14 14L12 14L12 13L13 13L13 12L12 12L12 11L13 11L13 10L14 10L14 9L13 9L13 4L12 4L12 3L10 3L10 1L11 1L11 2L12 2L12 1L13 1L13 0ZM11 4L11 7L12 7L12 4ZM10 8L10 9L9 9L9 10L10 10L10 11L12 11L12 10L13 10L13 9L12 9L12 10L10 10L10 9L11 9L11 8ZM6 9L6 10L4 10L4 12L5 12L5 11L6 11L6 10L8 10L8 9ZM2 11L2 12L3 12L3 11ZM19 11L19 12L18 12L18 15L19 15L19 14L20 14L20 11ZM10 13L10 14L9 14L9 15L12 15L12 16L14 16L14 15L12 15L12 14L11 14L11 13ZM12 17L12 18L15 18L15 19L12 19L12 20L15 20L15 19L16 19L16 20L17 20L17 19L16 19L16 17ZM9 18L9 19L8 19L8 21L10 21L10 18ZM0 0L0 7L7 7L7 0ZM1 1L1 6L6 6L6 1ZM2 2L2 5L5 5L5 2ZM14 0L14 7L21 7L21 0ZM15 1L15 6L20 6L20 1ZM16 2L16 5L19 5L19 2ZM0 14L0 21L7 21L7 14ZM1 15L1 20L6 20L6 15ZM2 16L2 19L5 19L5 16Z" fill="#000000"/></g></g></svg>
