<?xml version="1.0" encoding="UTF-8"?>
<svg xmlns="http://www.w3.org/2000/svg" version="1.1" width="100" height="100" viewBox="0 0 100 100"><rect x="0" y="0" width="100" height="100" fill="#ffffff"/><g transform="scale(4.762)"><g transform="translate(0,0)"><path fill-rule="evenodd" d="M8 0L8 2L9 2L9 4L8 4L8 11L9 11L9 12L10 12L10 11L11 11L11 13L8 13L8 14L9 14L9 15L8 15L8 16L9 16L9 18L8 18L8 21L9 21L9 18L10 18L10 19L11 19L11 21L13 21L13 12L12 12L12 11L15 11L15 14L14 14L14 15L15 15L15 17L16 17L16 19L15 19L15 18L14 18L14 19L15 19L15 21L16 21L16 19L17 19L17 21L18 21L18 19L21 19L21 18L18 18L18 15L17 15L17 14L19 14L19 13L18 13L18 11L17 11L17 10L19 10L19 9L20 9L20 16L21 16L21 8L19 8L19 9L17 9L17 8L13 8L13 9L12 9L12 8L11 8L11 5L13 5L13 3L12 3L12 2L13 2L13 0ZM10 1L10 2L11 2L11 1ZM10 3L10 4L9 4L9 7L10 7L10 5L11 5L11 3ZM12 6L12 7L13 7L13 6ZM0 8L0 12L1 12L1 9L3 9L3 8ZM5 8L5 10L2 10L2 11L3 11L3 12L2 12L2 13L3 13L3 12L4 12L4 11L5 11L5 10L6 10L6 11L7 11L7 10L6 10L6 9L7 9L7 8ZM9 9L9 10L11 10L11 9ZM15 9L15 10L16 10L16 9ZM5 12L5 13L7 13L7 12ZM10 14L10 15L9 15L9 16L11 16L11 17L10 17L10 18L11 18L11 17L12 17L12 16L11 16L11 14ZM15 14L15 15L16 15L16 14ZM20 20L20 21L21 21L21 20ZM0 0L0 7L7 7L7 0ZM1 1L1 6L6 6L6 1ZM2 2L2 5L5 5L5 2ZM14 0L14 7L21 7L21 0ZM15 1L15 6L20 6L20 1ZM16 2L16 5L19 5L19 2ZM0 14L0 21L7 21L7 14ZM1 15L1 20L6 20L6 15ZM2 16L2 19L5 19L5 16Z" fill="#000000"/></g></g></svg>
