<?xml version="1.0" encoding="UTF-8"?>
<svg xmlns="http://www.w3.org/2000/svg" version="1.1" width="100" height="100" viewBox="0 0 100 100"><rect x="0" y="0" width="100" height="100" fill="#ffffff"/><g transform="scale(4.762)"><g transform="translate(0,0)"><path fill-rule="evenodd" d="M8 0L8 1L9 1L9 2L8 2L8 5L12 5L12 3L13 3L13 0L12 0L12 3L11 3L11 2L10 2L10 0ZM9 2L9 4L11 4L11 3L10 3L10 2ZM8 6L8 7L9 7L9 8L8 8L8 14L10 14L10 15L9 15L9 17L8 17L8 21L10 21L10 19L11 19L11 21L12 21L12 19L14 19L14 21L15 21L15 20L16 20L16 19L14 19L14 16L13 16L13 15L11 15L11 14L10 14L10 13L11 13L11 12L12 12L12 9L11 9L11 6L10 6L10 7L9 7L9 6ZM12 6L12 7L13 7L13 6ZM0 8L0 10L2 10L2 11L1 11L1 13L7 13L7 12L6 12L6 11L7 11L7 10L5 10L5 9L4 9L4 8ZM6 8L6 9L7 9L7 8ZM9 8L9 10L10 10L10 8ZM13 8L13 10L14 10L14 11L13 11L13 13L12 13L12 14L13 14L13 13L14 13L14 14L15 14L15 15L16 15L16 16L17 16L17 18L18 18L18 19L19 19L19 18L20 18L20 16L21 16L21 15L20 15L20 16L19 16L19 13L20 13L20 12L21 12L21 8L20 8L20 10L18 10L18 9L19 9L19 8L16 8L16 9L14 9L14 8ZM2 9L2 10L4 10L4 9ZM15 10L15 11L14 11L14 12L15 12L15 11L16 11L16 13L17 13L17 14L18 14L18 13L19 13L19 11L18 11L18 10ZM4 11L4 12L5 12L5 11ZM17 11L17 12L18 12L18 11ZM10 15L10 17L9 17L9 19L10 19L10 18L11 18L11 19L12 19L12 18L11 18L11 15ZM12 16L12 17L13 17L13 16ZM18 17L18 18L19 18L19 17ZM20 19L20 20L21 20L21 19ZM18 20L18 21L19 21L19 20ZM0 0L0 7L7 7L7 0ZM1 1L1 6L6 6L6 1ZM2 2L2 5L5 5L5 2ZM14 0L14 7L21 7L21 0ZM15 1L15 6L20 6L20 1ZM16 2L16 5L19 5L19 2ZM0 14L0 21L7 21L7 14ZM1 15L1 20L6 20L6 15ZM2 16L2 19L5 19L5 16Z" fill="#000000"/></g></g></svg>
