<?xml version="1.0" encoding="UTF-8"?>
<svg xmlns="http://www.w3.org/2000/svg" version="1.1" width="100" height="100" viewBox="0 0 100 100"><rect x="0" y="0" width="100" height="100" fill="#ffffff"/><g transform="scale(4.762)"><g transform="translate(0,0)"><path fill-rule="evenodd" d="M8 0L8 1L9 1L9 4L10 4L10 5L11 5L11 6L10 6L10 7L9 7L9 6L8 6L8 8L9 8L9 9L7 9L7 8L6 8L6 9L7 9L7 10L5 10L5 8L3 8L3 10L2 10L2 8L0 8L0 12L2 12L2 13L3 13L3 12L4 12L4 13L5 13L5 12L6 12L6 13L7 13L7 12L8 12L8 11L7 11L7 10L11 10L11 11L12 11L12 12L10 12L10 11L9 11L9 13L8 13L8 14L9 14L9 13L11 13L11 14L12 14L12 15L13 15L13 14L16 14L16 15L14 15L14 16L11 16L11 15L9 15L9 16L8 16L8 18L9 18L9 19L8 19L8 21L9 21L9 20L11 20L11 21L13 21L13 20L14 20L14 21L16 21L16 19L17 19L17 20L21 20L21 18L19 18L19 17L20 17L20 16L19 16L19 15L18 15L18 12L19 12L19 11L20 11L20 13L19 13L19 14L20 14L20 13L21 13L21 10L19 10L19 11L18 11L18 12L16 12L16 10L14 10L14 9L15 9L15 8L14 8L14 9L13 9L13 8L12 8L12 7L13 7L13 4L12 4L12 3L11 3L11 2L12 2L12 1L13 1L13 0ZM10 1L10 2L11 2L11 1ZM11 6L11 7L12 7L12 6ZM11 8L11 9L12 9L12 10L13 10L13 12L12 12L12 14L13 14L13 13L15 13L15 11L14 11L14 10L13 10L13 9L12 9L12 8ZM20 8L20 9L21 9L21 8ZM17 9L17 10L18 10L18 9ZM1 10L1 11L2 11L2 10ZM4 10L4 11L5 11L5 10ZM6 11L6 12L7 12L7 11ZM16 15L16 17L15 17L15 16L14 16L14 17L11 17L11 16L10 16L10 17L9 17L9 18L10 18L10 19L11 19L11 20L13 20L13 19L14 19L14 18L15 18L15 19L16 19L16 18L18 18L18 17L19 17L19 16L18 16L18 17L17 17L17 15ZM11 18L11 19L13 19L13 18ZM0 0L0 7L7 7L7 0ZM1 1L1 6L6 6L6 1ZM2 2L2 5L5 5L5 2ZM14 0L14 7L21 7L21 0ZM15 1L15 6L20 6L20 1ZM16 2L16 5L19 5L19 2ZM0 14L0 21L7 21L7 14ZM1 15L1 20L6 20L6 15ZM2 16L2 19L5 19L5 16Z" fill="#000000"/></g></g></svg>
