<?xml version="1.0" encoding="UTF-8"?>
<svg xmlns="http://www.w3.org/2000/svg" version="1.1" width="100" height="100" viewBox="0 0 100 100"><rect x="0" y="0" width="100" height="100" fill="#ffffff"/><g transform="scale(4.762)"><g transform="translate(0,0)"><path fill-rule="evenodd" d="M10 0L10 3L12 3L12 5L13 5L13 3L12 3L12 2L13 2L13 0L12 0L12 2L11 2L11 0ZM8 1L8 3L9 3L9 1ZM8 4L8 8L6 8L6 9L7 9L7 10L6 10L6 11L5 11L5 9L4 9L4 8L3 8L3 9L2 9L2 8L0 8L0 10L1 10L1 9L2 9L2 10L3 10L3 9L4 9L4 11L2 11L2 12L1 12L1 11L0 11L0 13L2 13L2 12L3 12L3 13L4 13L4 11L5 11L5 13L8 13L8 15L9 15L9 16L10 16L10 19L11 19L11 18L12 18L12 20L10 20L10 21L15 21L15 20L13 20L13 18L15 18L15 19L16 19L16 20L17 20L17 21L18 21L18 20L17 20L17 18L18 18L18 19L19 19L19 18L20 18L20 19L21 19L21 17L19 17L19 18L18 18L18 17L13 17L13 16L14 16L14 14L13 14L13 13L14 13L14 12L15 12L15 10L17 10L17 11L16 11L16 13L17 13L17 12L18 12L18 10L20 10L20 11L19 11L19 13L18 13L18 14L19 14L19 16L21 16L21 15L20 15L20 14L21 14L21 12L20 12L20 11L21 11L21 9L20 9L20 8L18 8L18 10L17 10L17 8L14 8L14 10L13 10L13 9L12 9L12 7L13 7L13 6L12 6L12 7L11 7L11 4ZM9 6L9 8L8 8L8 9L10 9L10 8L11 8L11 7L10 7L10 6ZM11 9L11 10L9 10L9 11L12 11L12 12L8 12L8 11L6 11L6 12L8 12L8 13L10 13L10 14L9 14L9 15L10 15L10 16L11 16L11 17L12 17L12 16L11 16L11 15L10 15L10 14L12 14L12 13L13 13L13 11L12 11L12 9ZM19 13L19 14L20 14L20 13ZM15 14L15 15L16 15L16 16L17 16L17 14ZM8 17L8 18L9 18L9 17ZM8 19L8 21L9 21L9 19ZM19 20L19 21L20 21L20 20ZM0 0L0 7L7 7L7 0ZM1 1L1 6L6 6L6 1ZM2 2L2 5L5 5L5 2ZM14 0L14 7L21 7L21 0ZM15 1L15 6L20 6L20 1ZM16 2L16 5L19 5L19 2ZM0 14L0 21L7 21L7 14ZM1 15L1 20L6 20L6 15ZM2 16L2 19L5 19L5 16Z" fill="#000000"/></g></g></svg>
