<?xml version="1.0" encoding="UTF-8"?>
<svg xmlns="http://www.w3.org/2000/svg" version="1.1" width="100" height="100" viewBox="0 0 100 100"><rect x="0" y="0" width="100" height="100" fill="#ffffff"/><g transform="scale(4.762)"><g transform="translate(0,0)"><path fill-rule="evenodd" d="M10 0L10 1L11 1L11 0ZM12 0L12 2L13 2L13 0ZM8 2L8 3L9 3L9 2ZM10 2L10 3L11 3L11 2ZM12 3L12 5L10 5L10 4L9 4L9 6L8 6L8 8L4 8L4 9L3 9L3 8L0 8L0 9L2 9L2 11L3 11L3 10L4 10L4 12L3 12L3 13L5 13L5 12L6 12L6 13L8 13L8 17L9 17L9 18L8 18L8 21L10 21L10 20L11 20L11 18L10 18L10 17L11 17L11 16L10 16L10 15L11 15L11 14L10 14L10 13L11 13L11 12L12 12L12 11L13 11L13 13L12 13L12 15L13 15L13 16L12 16L12 19L13 19L13 21L14 21L14 19L13 19L13 18L14 18L14 15L16 15L16 17L15 17L15 19L17 19L17 15L18 15L18 14L19 14L19 18L18 18L18 19L19 19L19 21L21 21L21 20L20 20L20 19L21 19L21 18L20 18L20 16L21 16L21 9L19 9L19 8L18 8L18 10L17 10L17 9L15 9L15 8L13 8L13 9L12 9L12 11L10 11L10 10L11 10L11 8L12 8L12 7L13 7L13 6L12 6L12 5L13 5L13 3ZM9 6L9 9L8 9L8 10L7 10L7 9L4 9L4 10L5 10L5 11L6 11L6 12L7 12L7 11L9 11L9 12L10 12L10 11L9 11L9 10L10 10L10 6ZM11 6L11 7L12 7L12 6ZM13 9L13 11L14 11L14 14L16 14L16 10L15 10L15 11L14 11L14 9ZM0 10L0 11L1 11L1 10ZM6 10L6 11L7 11L7 10ZM18 10L18 11L17 11L17 14L18 14L18 13L19 13L19 10ZM1 12L1 13L2 13L2 12ZM9 16L9 17L10 17L10 16ZM19 18L19 19L20 19L20 18ZM9 19L9 20L10 20L10 19ZM0 0L0 7L7 7L7 0ZM1 1L1 6L6 6L6 1ZM2 2L2 5L5 5L5 2ZM14 0L14 7L21 7L21 0ZM15 1L15 6L20 6L20 1ZM16 2L16 5L19 5L19 2ZM0 14L0 21L7 21L7 14ZM1 15L1 20L6 20L6 15ZM2 16L2 19L5 19L5 16Z" fill="#000000"/></g></g></svg>
