<?xml version="1.0" encoding="UTF-8"?>
<svg xmlns="http://www.w3.org/2000/svg" version="1.1" width="100" height="100" viewBox="0 0 100 100"><rect x="0" y="0" width="100" height="100" fill="#ffffff"/><g transform="scale(4.762)"><g transform="translate(0,0)"><path fill-rule="evenodd" d="M9 0L9 1L8 1L8 2L9 2L9 3L8 3L8 4L9 4L9 3L10 3L10 2L9 2L9 1L10 1L10 0ZM12 0L12 1L11 1L11 2L12 2L12 1L13 1L13 0ZM11 3L11 4L10 4L10 5L8 5L8 7L9 7L9 6L10 6L10 8L6 8L6 9L5 9L5 8L0 8L0 10L2 10L2 11L3 11L3 12L4 12L4 13L5 13L5 12L6 12L6 13L7 13L7 12L6 12L6 11L8 11L8 12L10 12L10 10L12 10L12 12L13 12L13 13L16 13L16 14L17 14L17 15L16 15L16 16L13 16L13 15L14 15L14 14L12 14L12 13L11 13L11 14L10 14L10 13L8 13L8 15L9 15L9 16L8 16L8 21L17 21L17 20L19 20L19 21L20 21L20 20L19 20L19 17L21 17L21 15L20 15L20 14L21 14L21 13L20 13L20 12L21 12L21 11L20 11L20 10L21 10L21 9L20 9L20 8L19 8L19 9L20 9L20 10L19 10L19 11L18 11L18 8L17 8L17 9L16 9L16 8L15 8L15 9L14 9L14 8L13 8L13 4L12 4L12 3ZM11 4L11 7L12 7L12 4ZM10 8L10 9L11 9L11 8ZM2 9L2 10L4 10L4 11L6 11L6 10L7 10L7 9L6 9L6 10L5 10L5 9ZM8 9L8 11L9 11L9 9ZM12 9L12 10L13 10L13 12L16 12L16 13L18 13L18 15L19 15L19 16L16 16L16 17L19 17L19 16L20 16L20 15L19 15L19 14L20 14L20 13L19 13L19 12L20 12L20 11L19 11L19 12L16 12L16 11L17 11L17 10L16 10L16 11L15 11L15 10L13 10L13 9ZM11 14L11 16L10 16L10 18L9 18L9 20L12 20L12 18L13 18L13 20L17 20L17 19L18 19L18 18L15 18L15 17L14 17L14 18L13 18L13 17L12 17L12 14ZM11 17L11 18L12 18L12 17ZM0 0L0 7L7 7L7 0ZM1 1L1 6L6 6L6 1ZM2 2L2 5L5 5L5 2ZM14 0L14 7L21 7L21 0ZM15 1L15 6L20 6L20 1ZM16 2L16 5L19 5L19 2ZM0 14L0 21L7 21L7 14ZM1 15L1 20L6 20L6 15ZM2 16L2 19L5 19L5 16Z" fill="#000000"/></g></g></svg>
