<?xml version="1.0" encoding="UTF-8"?>
<svg xmlns="http://www.w3.org/2000/svg" version="1.1" width="100" height="100" viewBox="0 0 100 100"><rect x="0" y="0" width="100" height="100" fill="#ffffff"/><g transform="scale(4.762)"><g transform="translate(0,0)"><path fill-rule="evenodd" d="M8 0L8 4L9 4L9 5L8 5L8 7L9 7L9 5L10 5L10 7L11 7L11 3L12 3L12 8L11 8L11 9L8 9L8 10L6 10L6 9L7 9L7 8L4 8L4 9L2 9L2 8L0 8L0 10L1 10L1 11L0 11L0 13L1 13L1 11L2 11L2 12L3 12L3 11L5 11L5 10L6 10L6 11L7 11L7 12L6 12L6 13L7 13L7 12L8 12L8 14L9 14L9 15L8 15L8 17L10 17L10 18L9 18L9 19L8 19L8 21L11 21L11 20L12 20L12 17L10 17L10 16L11 16L11 15L12 15L12 13L13 13L13 15L14 15L14 14L16 14L16 15L17 15L17 14L18 14L18 15L20 15L20 16L21 16L21 15L20 15L20 13L21 13L21 11L20 11L20 9L21 9L21 8L17 8L17 9L16 9L16 8L15 8L15 9L16 9L16 10L15 10L15 11L17 11L17 10L18 10L18 11L20 11L20 13L19 13L19 14L18 14L18 13L13 13L13 11L12 11L12 9L13 9L13 2L12 2L12 1L13 1L13 0L12 0L12 1L11 1L11 2L10 2L10 1L9 1L9 0ZM9 3L9 4L10 4L10 3ZM4 9L4 10L5 10L5 9ZM18 9L18 10L19 10L19 9ZM2 10L2 11L3 11L3 10ZM8 10L8 12L9 12L9 13L10 13L10 15L9 15L9 16L10 16L10 15L11 15L11 13L10 13L10 11L9 11L9 10ZM11 11L11 12L12 12L12 11ZM4 12L4 13L5 13L5 12ZM14 17L14 18L15 18L15 17ZM16 17L16 21L17 21L17 19L18 19L18 18L21 18L21 17ZM10 19L10 20L11 20L11 19ZM20 20L20 21L21 21L21 20ZM0 0L0 7L7 7L7 0ZM1 1L1 6L6 6L6 1ZM2 2L2 5L5 5L5 2ZM14 0L14 7L21 7L21 0ZM15 1L15 6L20 6L20 1ZM16 2L16 5L19 5L19 2ZM0 14L0 21L7 21L7 14ZM1 15L1 20L6 20L6 15ZM2 16L2 19L5 19L5 16Z" fill="#000000"/></g></g></svg>
