<?xml version="1.0" encoding="UTF-8"?>
<svg xmlns="http://www.w3.org/2000/svg" version="1.1" width="100" height="100" viewBox="0 0 100 100"><rect x="0" y="0" width="100" height="100" fill="#ffffff"/><g transform="scale(4.762)"><g transform="translate(0,0)"><path fill-rule="evenodd" d="M10 0L10 1L11 1L11 0ZM12 0L12 2L13 2L13 0ZM8 2L8 3L9 3L9 2ZM10 2L10 3L11 3L11 2ZM12 3L12 5L10 5L10 4L9 4L9 6L8 6L8 8L4 8L4 9L5 9L5 10L2 10L2 9L3 9L3 8L0 8L0 11L2 11L2 13L3 13L3 11L5 11L5 12L4 12L4 13L7 13L7 12L6 12L6 11L8 11L8 12L9 12L9 10L11 10L11 9L12 9L12 11L11 11L11 12L10 12L10 13L8 13L8 17L9 17L9 18L8 18L8 21L9 21L9 20L10 20L10 19L11 19L11 18L10 18L10 17L11 17L11 16L12 16L12 19L13 19L13 20L12 20L12 21L14 21L14 19L17 19L17 15L18 15L18 14L19 14L19 18L18 18L18 19L19 19L19 21L21 21L21 20L20 20L20 19L21 19L21 18L20 18L20 16L21 16L21 9L19 9L19 8L18 8L18 10L17 10L17 9L15 9L15 8L13 8L13 6L12 6L12 5L13 5L13 3ZM9 6L9 9L10 9L10 6ZM11 6L11 7L12 7L12 6ZM6 9L6 10L7 10L7 9ZM13 9L13 11L14 11L14 14L16 14L16 10L15 10L15 11L14 11L14 9ZM18 10L18 11L17 11L17 14L18 14L18 13L19 13L19 10ZM0 12L0 13L1 13L1 12ZM11 12L11 15L10 15L10 14L9 14L9 17L10 17L10 16L11 16L11 15L12 15L12 12ZM14 15L14 17L13 17L13 18L15 18L15 17L16 17L16 15ZM19 18L19 19L20 19L20 18ZM0 0L0 7L7 7L7 0ZM1 1L1 6L6 6L6 1ZM2 2L2 5L5 5L5 2ZM14 0L14 7L21 7L21 0ZM15 1L15 6L20 6L20 1ZM16 2L16 5L19 5L19 2ZM0 14L0 21L7 21L7 14ZM1 15L1 20L6 20L6 15ZM2 16L2 19L5 19L5 16Z" fill="#000000"/></g></g></svg>
