<?xml version="1.0" encoding="UTF-8"?>
<svg xmlns="http://www.w3.org/2000/svg" version="1.1" width="100" height="100" viewBox="0 0 100 100"><rect x="0" y="0" width="100" height="100" fill="#ffffff"/><g transform="scale(4.762)"><g transform="translate(0,0)"><path fill-rule="evenodd" d="M12 0L12 2L11 2L11 1L10 1L10 4L9 4L9 3L8 3L8 5L9 5L9 6L8 6L8 7L9 7L9 6L10 6L10 7L11 7L11 6L12 6L12 7L13 7L13 6L12 6L12 5L13 5L13 0ZM11 3L11 4L10 4L10 6L11 6L11 5L12 5L12 3ZM0 8L0 9L2 9L2 10L0 10L0 11L3 11L3 12L0 12L0 13L8 13L8 16L9 16L9 14L12 14L12 15L13 15L13 14L12 14L12 13L13 13L13 12L11 12L11 11L10 11L10 10L11 10L11 9L12 9L12 11L13 11L13 10L14 10L14 9L12 9L12 8L11 8L11 9L8 9L8 8L5 8L5 11L4 11L4 9L2 9L2 8ZM16 8L16 9L17 9L17 11L16 11L16 10L15 10L15 14L14 14L14 16L10 16L10 17L9 17L9 19L8 19L8 21L10 21L10 20L11 20L11 21L17 21L17 20L19 20L19 21L20 21L20 20L19 20L19 19L21 19L21 18L19 18L19 17L21 17L21 15L20 15L20 14L21 14L21 11L20 11L20 10L19 10L19 11L18 11L18 8ZM6 9L6 10L8 10L8 11L6 11L6 12L8 12L8 13L11 13L11 12L9 12L9 10L8 10L8 9ZM19 11L19 12L18 12L18 15L19 15L19 14L20 14L20 11ZM15 14L15 15L16 15L16 17L15 17L15 19L13 19L13 20L15 20L15 19L16 19L16 20L17 20L17 19L16 19L16 17L19 17L19 16L17 16L17 14ZM12 17L12 18L14 18L14 17ZM10 18L10 19L9 19L9 20L10 20L10 19L11 19L11 18ZM0 0L0 7L7 7L7 0ZM1 1L1 6L6 6L6 1ZM2 2L2 5L5 5L5 2ZM14 0L14 7L21 7L21 0ZM15 1L15 6L20 6L20 1ZM16 2L16 5L19 5L19 2ZM0 14L0 21L7 21L7 14ZM1 15L1 20L6 20L6 15ZM2 16L2 19L5 19L5 16Z" fill="#000000"/></g></g></svg>
