<?xml version="1.0" encoding="UTF-8"?>
<svg xmlns="http://www.w3.org/2000/svg" version="1.1" width="100" height="100" viewBox="0 0 100 100"><rect x="0" y="0" width="100" height="100" fill="#ffffff"/><g transform="scale(4.762)"><g transform="translate(0,0)"><path fill-rule="evenodd" d="M9 0L9 2L8 2L8 3L9 3L9 4L10 4L10 5L11 5L11 4L12 4L12 7L11 7L11 6L10 6L10 7L9 7L9 6L8 6L8 8L4 8L4 9L3 9L3 8L0 8L0 10L3 10L3 12L2 12L2 11L0 11L0 12L2 12L2 13L7 13L7 12L8 12L8 11L9 11L9 13L8 13L8 17L9 17L9 13L10 13L10 11L9 11L9 10L6 10L6 11L5 11L5 12L4 12L4 10L5 10L5 9L10 9L10 10L12 10L12 11L13 11L13 12L12 12L12 15L13 15L13 16L11 16L11 17L10 17L10 18L11 18L11 17L12 17L12 20L11 20L11 19L10 19L10 21L14 21L14 19L17 19L17 15L18 15L18 14L19 14L19 15L21 15L21 9L19 9L19 8L18 8L18 10L17 10L17 9L15 9L15 8L13 8L13 4L12 4L12 3L13 3L13 2L12 2L12 1L13 1L13 0L11 0L11 1L10 1L10 0ZM10 2L10 4L11 4L11 2ZM10 7L10 8L11 8L11 7ZM12 8L12 10L13 10L13 11L14 11L14 18L13 18L13 19L14 19L14 18L15 18L15 17L16 17L16 15L15 15L15 14L16 14L16 10L15 10L15 11L14 11L14 9L13 9L13 8ZM18 10L18 11L17 11L17 14L18 14L18 13L19 13L19 10ZM6 11L6 12L7 12L7 11ZM19 16L19 18L18 18L18 19L19 19L19 21L21 21L21 20L20 20L20 19L21 19L21 18L20 18L20 16ZM8 18L8 21L9 21L9 18ZM19 18L19 19L20 19L20 18ZM0 0L0 7L7 7L7 0ZM1 1L1 6L6 6L6 1ZM2 2L2 5L5 5L5 2ZM14 0L14 7L21 7L21 0ZM15 1L15 6L20 6L20 1ZM16 2L16 5L19 5L19 2ZM0 14L0 21L7 21L7 14ZM1 15L1 20L6 20L6 15ZM2 16L2 19L5 19L5 16Z" fill="#000000"/></g></g></svg>
