<?xml version="1.0" encoding="UTF-8"?>
<svg xmlns="http://www.w3.org/2000/svg" version="1.1" width="100" height="100" viewBox="0 0 100 100"><rect x="0" y="0" width="100" height="100" fill="#ffffff"/><g transform="scale(4.762)"><g transform="translate(0,0)"><path fill-rule="evenodd" d="M8 0L8 1L9 1L9 0ZM10 0L10 2L8 2L8 5L9 5L9 6L8 6L8 7L9 7L9 6L10 6L10 7L11 7L11 8L8 8L8 9L7 9L7 8L6 8L6 9L7 9L7 10L6 10L6 11L7 11L7 10L8 10L8 12L5 12L5 11L4 11L4 10L5 10L5 9L4 9L4 8L0 8L0 12L1 12L1 13L3 13L3 11L4 11L4 13L8 13L8 14L9 14L9 13L8 13L8 12L10 12L10 15L9 15L9 17L8 17L8 21L9 21L9 20L10 20L10 19L11 19L11 20L13 20L13 18L14 18L14 21L15 21L15 20L16 20L16 19L15 19L15 18L14 18L14 16L13 16L13 15L14 15L14 14L15 14L15 15L16 15L16 16L17 16L17 18L18 18L18 19L19 19L19 18L20 18L20 15L19 15L19 13L20 13L20 12L21 12L21 8L20 8L20 10L18 10L18 9L19 9L19 8L16 8L16 9L14 9L14 8L13 8L13 5L12 5L12 4L13 4L13 3L12 3L12 1L13 1L13 0ZM10 2L10 4L9 4L9 5L11 5L11 4L12 4L12 3L11 3L11 2ZM11 6L11 7L12 7L12 6ZM1 9L1 11L2 11L2 9ZM9 9L9 10L10 10L10 11L11 11L11 15L13 15L13 14L12 14L12 13L13 13L13 11L14 11L14 12L15 12L15 11L16 11L16 13L17 13L17 14L18 14L18 13L19 13L19 11L18 11L18 10L15 10L15 11L14 11L14 10L12 10L12 9ZM11 10L11 11L12 11L12 10ZM17 11L17 12L18 12L18 11ZM10 16L10 17L13 17L13 16ZM18 17L18 18L19 18L19 17ZM9 18L9 19L10 19L10 18ZM11 18L11 19L12 19L12 18ZM20 19L20 20L21 20L21 19ZM18 20L18 21L19 21L19 20ZM0 0L0 7L7 7L7 0ZM1 1L1 6L6 6L6 1ZM2 2L2 5L5 5L5 2ZM14 0L14 7L21 7L21 0ZM15 1L15 6L20 6L20 1ZM16 2L16 5L19 5L19 2ZM0 14L0 21L7 21L7 14ZM1 15L1 20L6 20L6 15ZM2 16L2 19L5 19L5 16Z" fill="#000000"/></g></g></svg>
