<?xml version="1.0" encoding="UTF-8"?>
<svg xmlns="http://www.w3.org/2000/svg" version="1.1" width="100" height="100" viewBox="0 0 100 100"><rect x="0" y="0" width="100" height="100" fill="#ffffff"/><g transform="scale(4.762)"><g transform="translate(0,0)"><path fill-rule="evenodd" d="M8 0L8 1L9 1L9 0ZM10 0L10 2L8 2L8 5L9 5L9 6L8 6L8 7L9 7L9 6L10 6L10 7L11 7L11 8L8 8L8 10L9 10L9 11L12 11L12 10L14 10L14 11L13 11L13 13L12 13L12 14L15 14L15 15L16 15L16 16L17 16L17 18L18 18L18 19L19 19L19 18L20 18L20 15L19 15L19 13L20 13L20 12L21 12L21 8L20 8L20 10L18 10L18 9L19 9L19 8L16 8L16 9L14 9L14 8L13 8L13 5L12 5L12 4L13 4L13 3L12 3L12 1L13 1L13 0ZM10 2L10 4L9 4L9 5L11 5L11 4L12 4L12 3L11 3L11 2ZM11 6L11 7L12 7L12 6ZM0 8L0 9L4 9L4 10L3 10L3 11L5 11L5 12L3 12L3 13L5 13L5 12L6 12L6 13L8 13L8 14L11 14L11 13L10 13L10 12L9 12L9 13L8 13L8 11L7 11L7 10L6 10L6 9L7 9L7 8L6 8L6 9L4 9L4 8ZM9 9L9 10L10 10L10 9ZM11 9L11 10L12 10L12 9ZM0 10L0 11L2 11L2 10ZM5 10L5 11L6 11L6 12L7 12L7 11L6 11L6 10ZM15 10L15 11L14 11L14 12L15 12L15 11L16 11L16 13L17 13L17 14L18 14L18 13L19 13L19 11L18 11L18 10ZM17 11L17 12L18 12L18 11ZM0 12L0 13L1 13L1 12ZM9 15L9 17L8 17L8 21L9 21L9 20L10 20L10 21L12 21L12 20L13 20L13 19L14 19L14 21L15 21L15 20L16 20L16 19L15 19L15 18L13 18L13 17L14 17L14 16L13 16L13 17L11 17L11 16L12 16L12 15ZM9 17L9 19L10 19L10 20L12 20L12 18L11 18L11 17ZM18 17L18 18L19 18L19 17ZM20 19L20 20L21 20L21 19ZM18 20L18 21L19 21L19 20ZM0 0L0 7L7 7L7 0ZM1 1L1 6L6 6L6 1ZM2 2L2 5L5 5L5 2ZM14 0L14 7L21 7L21 0ZM15 1L15 6L20 6L20 1ZM16 2L16 5L19 5L19 2ZM0 14L0 21L7 21L7 14ZM1 15L1 20L6 20L6 15ZM2 16L2 19L5 19L5 16Z" fill="#000000"/></g></g></svg>
