<?xml version="1.0" encoding="UTF-8"?>
<svg xmlns="http://www.w3.org/2000/svg" version="1.1" width="100" height="100" viewBox="0 0 100 100"><rect x="0" y="0" width="100" height="100" fill="#ffffff"/><g transform="scale(4.762)"><g transform="translate(0,0)"><path fill-rule="evenodd" d="M9 0L9 2L8 2L8 3L9 3L9 4L10 4L10 5L11 5L11 4L12 4L12 7L11 7L11 6L10 6L10 7L9 7L9 6L8 6L8 8L4 8L4 9L5 9L5 11L4 11L4 10L3 10L3 11L2 11L2 13L3 13L3 11L4 11L4 13L8 13L8 17L9 17L9 18L8 18L8 21L9 21L9 18L11 18L11 10L12 10L12 11L13 11L13 13L12 13L12 15L13 15L13 16L12 16L12 19L10 19L10 20L11 20L11 21L14 21L14 19L17 19L17 15L18 15L18 14L19 14L19 15L21 15L21 9L19 9L19 8L18 8L18 10L17 10L17 9L15 9L15 8L13 8L13 4L12 4L12 3L13 3L13 2L12 2L12 1L13 1L13 0L11 0L11 1L10 1L10 0ZM10 2L10 4L11 4L11 2ZM10 7L10 8L11 8L11 7ZM0 8L0 9L3 9L3 8ZM12 8L12 10L13 10L13 11L14 11L14 13L13 13L13 15L14 15L14 17L13 17L13 18L15 18L15 17L16 17L16 15L15 15L15 14L16 14L16 10L15 10L15 11L14 11L14 9L13 9L13 8ZM6 9L6 10L7 10L7 11L6 11L6 12L7 12L7 11L10 11L10 10L11 10L11 9L8 9L8 10L7 10L7 9ZM18 10L18 11L17 11L17 14L18 14L18 13L19 13L19 10ZM0 12L0 13L1 13L1 12ZM8 12L8 13L10 13L10 12ZM9 14L9 15L10 15L10 14ZM9 16L9 17L10 17L10 16ZM19 16L19 18L18 18L18 19L19 19L19 21L21 21L21 20L20 20L20 19L21 19L21 18L20 18L20 16ZM19 18L19 19L20 19L20 18ZM12 19L12 20L13 20L13 19ZM0 0L0 7L7 7L7 0ZM1 1L1 6L6 6L6 1ZM2 2L2 5L5 5L5 2ZM14 0L14 7L21 7L21 0ZM15 1L15 6L20 6L20 1ZM16 2L16 5L19 5L19 2ZM0 14L0 21L7 21L7 14ZM1 15L1 20L6 20L6 15ZM2 16L2 19L5 19L5 16Z" fill="#000000"/></g></g></svg>
