<?xml version="1.0" encoding="UTF-8"?>
<svg xmlns="http://www.w3.org/2000/svg" version="1.1" width="100" height="100" viewBox="0 0 100 100"><rect x="0" y="0" width="100" height="100" fill="#ffffff"/><g transform="scale(4.762)"><g transform="translate(0,0)"><path fill-rule="evenodd" d="M8 0L8 2L9 2L9 4L8 4L8 9L9 9L9 10L10 10L10 11L11 11L11 10L10 10L10 9L13 9L13 11L12 11L12 12L13 12L13 11L15 11L15 14L16 14L16 15L15 15L15 17L16 17L16 19L15 19L15 18L14 18L14 19L15 19L15 21L16 21L16 19L17 19L17 21L18 21L18 19L21 19L21 18L18 18L18 15L17 15L17 14L19 14L19 13L18 13L18 11L17 11L17 10L19 10L19 9L20 9L20 15L21 15L21 8L19 8L19 9L17 9L17 8L12 8L12 7L13 7L13 6L12 6L12 7L11 7L11 5L10 5L10 7L9 7L9 4L10 4L10 3L11 3L11 4L12 4L12 5L13 5L13 3L12 3L12 2L13 2L13 0ZM10 1L10 2L11 2L11 1ZM0 8L0 9L1 9L1 10L2 10L2 11L0 11L0 13L1 13L1 12L2 12L2 11L4 11L4 12L3 12L3 13L5 13L5 11L4 11L4 10L6 10L6 11L7 11L7 12L6 12L6 13L7 13L7 12L8 12L8 14L9 14L9 11L7 11L7 10L6 10L6 9L7 9L7 8L5 8L5 9L4 9L4 10L2 10L2 9L3 9L3 8ZM15 9L15 10L16 10L16 9ZM10 12L10 15L8 15L8 16L9 16L9 17L10 17L10 18L11 18L11 19L10 19L10 20L9 20L9 18L8 18L8 21L11 21L11 19L13 19L13 14L14 14L14 13L13 13L13 14L11 14L11 12ZM10 15L10 16L11 16L11 15ZM12 20L12 21L13 21L13 20ZM20 20L20 21L21 21L21 20ZM0 0L0 7L7 7L7 0ZM1 1L1 6L6 6L6 1ZM2 2L2 5L5 5L5 2ZM14 0L14 7L21 7L21 0ZM15 1L15 6L20 6L20 1ZM16 2L16 5L19 5L19 2ZM0 14L0 21L7 21L7 14ZM1 15L1 20L6 20L6 15ZM2 16L2 19L5 19L5 16Z" fill="#000000"/></g></g></svg>
