<?xml version="1.0" encoding="UTF-8"?>
<svg xmlns="http://www.w3.org/2000/svg" version="1.1" width="100" height="100" viewBox="0 0 100 100"><rect x="0" y="0" width="100" height="100" fill="#ffffff"/><g transform="scale(4.762)"><g transform="translate(0,0)"><path fill-rule="evenodd" d="M10 0L10 1L8 1L8 2L10 2L10 3L8 3L8 4L9 4L9 5L8 5L8 7L9 7L9 8L6 8L6 9L5 9L5 8L0 8L0 9L2 9L2 10L0 10L0 11L2 11L2 12L0 12L0 13L8 13L8 15L9 15L9 12L10 12L10 14L12 14L12 17L11 17L11 15L10 15L10 17L11 17L11 18L12 18L12 19L10 19L10 20L9 20L9 16L8 16L8 21L10 21L10 20L11 20L11 21L17 21L17 20L19 20L19 21L20 21L20 20L19 20L19 17L21 17L21 16L20 16L20 14L21 14L21 13L20 13L20 12L21 12L21 11L20 11L20 10L21 10L21 9L20 9L20 8L19 8L19 9L20 9L20 10L19 10L19 11L18 11L18 8L17 8L17 9L16 9L16 8L15 8L15 9L14 9L14 8L13 8L13 9L12 9L12 8L11 8L11 9L9 9L9 8L10 8L10 7L11 7L11 6L12 6L12 7L13 7L13 6L12 6L12 5L13 5L13 0ZM11 1L11 2L12 2L12 1ZM10 3L10 5L9 5L9 7L10 7L10 6L11 6L11 5L12 5L12 3ZM3 9L3 10L5 10L5 12L9 12L9 11L10 11L10 12L11 12L11 13L12 13L12 14L13 14L13 16L16 16L16 17L19 17L19 16L16 16L16 15L17 15L17 14L16 14L16 13L18 13L18 15L19 15L19 14L20 14L20 13L19 13L19 12L20 12L20 11L19 11L19 12L16 12L16 11L17 11L17 10L16 10L16 11L15 11L15 10L13 10L13 11L12 11L12 9L11 9L11 10L9 10L9 9L6 9L6 10L5 10L5 9ZM6 10L6 11L7 11L7 10ZM3 11L3 12L4 12L4 11ZM12 12L12 13L14 13L14 14L15 14L15 13L16 13L16 12ZM12 17L12 18L13 18L13 19L12 19L12 20L17 20L17 19L18 19L18 18L15 18L15 17L14 17L14 18L13 18L13 17ZM14 18L14 19L15 19L15 18ZM0 0L0 7L7 7L7 0ZM1 1L1 6L6 6L6 1ZM2 2L2 5L5 5L5 2ZM14 0L14 7L21 7L21 0ZM15 1L15 6L20 6L20 1ZM16 2L16 5L19 5L19 2ZM0 14L0 21L7 21L7 14ZM1 15L1 20L6 20L6 15ZM2 16L2 19L5 19L5 16Z" fill="#000000"/></g></g></svg>
