<?xml version="1.0" encoding="UTF-8"?>
<svg xmlns="http://www.w3.org/2000/svg" version="1.1" width="100" height="100" viewBox="0 0 100 100"><rect x="0" y="0" width="100" height="100" fill="#ffffff"/><g transform="scale(4.762)"><g transform="translate(0,0)"><path fill-rule="evenodd" d="M8 0L8 4L12 4L12 5L11 5L11 6L10 6L10 5L8 5L8 7L9 7L9 10L8 10L8 9L7 9L7 8L4 8L4 9L5 9L5 10L1 10L1 9L2 9L2 8L0 8L0 10L1 10L1 11L2 11L2 12L3 12L3 13L4 13L4 12L3 12L3 11L5 11L5 12L6 12L6 13L7 13L7 12L8 12L8 14L9 14L9 15L8 15L8 17L9 17L9 19L8 19L8 21L10 21L10 20L11 20L11 21L13 21L13 19L15 19L15 17L14 17L14 18L13 18L13 19L12 19L12 17L13 17L13 15L14 15L14 13L13 13L13 11L12 11L12 10L13 10L13 9L12 9L12 8L13 8L13 6L12 6L12 5L13 5L13 4L12 4L12 3L9 3L9 1L10 1L10 2L11 2L11 1L12 1L12 2L13 2L13 0ZM9 6L9 7L10 7L10 6ZM11 6L11 7L12 7L12 6ZM10 8L10 10L12 10L12 9L11 9L11 8ZM15 8L15 9L16 9L16 10L15 10L15 11L17 11L17 10L18 10L18 11L20 11L20 13L19 13L19 14L18 14L18 13L15 13L15 14L16 14L16 15L17 15L17 14L18 14L18 15L19 15L19 16L20 16L20 13L21 13L21 11L20 11L20 9L21 9L21 8L17 8L17 9L16 9L16 8ZM6 9L6 10L5 10L5 11L6 11L6 12L7 12L7 11L6 11L6 10L7 10L7 9ZM18 9L18 10L19 10L19 9ZM9 11L9 13L10 13L10 14L11 14L11 13L12 13L12 15L10 15L10 16L9 16L9 17L12 17L12 15L13 15L13 13L12 13L12 12L11 12L11 13L10 13L10 11ZM0 12L0 13L1 13L1 12ZM16 17L16 21L17 21L17 19L18 19L18 18L21 18L21 17ZM10 18L10 19L9 19L9 20L10 20L10 19L11 19L11 20L12 20L12 19L11 19L11 18ZM20 20L20 21L21 21L21 20ZM0 0L0 7L7 7L7 0ZM1 1L1 6L6 6L6 1ZM2 2L2 5L5 5L5 2ZM14 0L14 7L21 7L21 0ZM15 1L15 6L20 6L20 1ZM16 2L16 5L19 5L19 2ZM0 14L0 21L7 21L7 14ZM1 15L1 20L6 20L6 15ZM2 16L2 19L5 19L5 16Z" fill="#000000"/></g></g></svg>
