<?xml version="1.0" encoding="UTF-8"?>
<svg xmlns="http://www.w3.org/2000/svg" version="1.1" width="100" height="100" viewBox="0 0 100 100"><rect x="0" y="0" width="100" height="100" fill="#ffffff"/><g transform="scale(4.762)"><g transform="translate(0,0)"><path fill-rule="evenodd" d="M9 0L9 3L8 3L8 5L9 5L9 4L10 4L10 7L9 7L9 6L8 6L8 7L9 7L9 11L8 11L8 8L5 8L5 9L4 9L4 10L2 10L2 8L0 8L0 9L1 9L1 10L2 10L2 12L1 12L1 13L2 13L2 12L3 12L3 11L4 11L4 10L5 10L5 9L7 9L7 10L6 10L6 11L5 11L5 12L4 12L4 13L8 13L8 16L9 16L9 19L8 19L8 21L9 21L9 20L10 20L10 21L12 21L12 20L10 20L10 17L11 17L11 16L12 16L12 18L13 18L13 16L14 16L14 15L15 15L15 17L16 17L16 16L18 16L18 20L17 20L17 19L16 19L16 21L19 21L19 20L20 20L20 19L21 19L21 18L19 18L19 16L18 16L18 15L16 15L16 13L15 13L15 12L14 12L14 13L10 13L10 12L9 12L9 11L12 11L12 10L13 10L13 11L14 11L14 10L15 10L15 9L14 9L14 10L13 10L13 4L12 4L12 3L10 3L10 1L11 1L11 2L12 2L12 1L13 1L13 0ZM11 5L11 7L12 7L12 5ZM10 8L10 10L12 10L12 8ZM16 8L16 12L17 12L17 14L18 14L18 13L20 13L20 12L21 12L21 9L18 9L18 8ZM17 9L17 12L18 12L18 9ZM19 10L19 11L20 11L20 10ZM6 11L6 12L7 12L7 11ZM8 12L8 13L9 13L9 14L10 14L10 16L11 16L11 15L12 15L12 14L10 14L10 13L9 13L9 12ZM13 14L13 15L14 15L14 14ZM19 14L19 15L20 15L20 16L21 16L21 14ZM14 18L14 19L15 19L15 18ZM13 20L13 21L14 21L14 20ZM0 0L0 7L7 7L7 0ZM1 1L1 6L6 6L6 1ZM2 2L2 5L5 5L5 2ZM14 0L14 7L21 7L21 0ZM15 1L15 6L20 6L20 1ZM16 2L16 5L19 5L19 2ZM0 14L0 21L7 21L7 14ZM1 15L1 20L6 20L6 15ZM2 16L2 19L5 19L5 16Z" fill="#000000"/></g></g></svg>
