<?xml version="1.0" encoding="UTF-8"?>
<svg xmlns="http://www.w3.org/2000/svg" version="1.1" width="100" height="100" viewBox="0 0 100 100"><rect x="0" y="0" width="100" height="100" fill="#ffffff"/><g transform="scale(4.762)"><g transform="translate(0,0)"><path fill-rule="evenodd" d="M10 0L10 1L11 1L11 0ZM12 0L12 2L13 2L13 0ZM8 2L8 3L9 3L9 2ZM10 2L10 3L11 3L11 2ZM12 3L12 4L11 4L11 5L10 5L10 4L9 4L9 6L8 6L8 8L4 8L4 9L3 9L3 8L0 8L0 10L1 10L1 11L0 11L0 13L4 13L4 11L5 11L5 10L6 10L6 11L7 11L7 10L8 10L8 9L9 9L9 10L11 10L11 11L10 11L10 12L9 12L9 13L8 13L8 17L9 17L9 18L8 18L8 21L10 21L10 19L11 19L11 21L12 21L12 20L13 20L13 21L16 21L16 20L17 20L17 21L19 21L19 20L18 20L18 19L19 19L19 18L20 18L20 19L21 19L21 18L20 18L20 17L21 17L21 16L20 16L20 14L21 14L21 10L18 10L18 9L19 9L19 8L18 8L18 9L17 9L17 10L18 10L18 11L16 11L16 9L15 9L15 8L12 8L12 9L11 9L11 6L12 6L12 7L13 7L13 6L12 6L12 5L13 5L13 3ZM9 6L9 9L10 9L10 6ZM1 9L1 10L2 10L2 9ZM6 9L6 10L7 10L7 9ZM12 9L12 11L13 11L13 9ZM14 9L14 10L15 10L15 9ZM3 10L3 11L1 11L1 12L3 12L3 11L4 11L4 10ZM14 11L14 12L15 12L15 11ZM18 11L18 12L16 12L16 13L15 13L15 14L14 14L14 13L13 13L13 12L12 12L12 13L11 13L11 12L10 12L10 14L9 14L9 15L11 15L11 16L9 16L9 17L10 17L10 18L9 18L9 19L10 19L10 18L11 18L11 17L12 17L12 19L13 19L13 17L14 17L14 18L15 18L15 17L16 17L16 19L17 19L17 17L18 17L18 18L19 18L19 17L20 17L20 16L19 16L19 17L18 17L18 15L19 15L19 14L18 14L18 12L19 12L19 13L20 13L20 12L19 12L19 11ZM5 12L5 13L7 13L7 12ZM12 14L12 15L13 15L13 14ZM16 14L16 15L17 15L17 14ZM14 15L14 17L15 17L15 15ZM12 16L12 17L13 17L13 16ZM16 16L16 17L17 17L17 16ZM14 19L14 20L15 20L15 19ZM20 20L20 21L21 21L21 20ZM0 0L0 7L7 7L7 0ZM1 1L1 6L6 6L6 1ZM2 2L2 5L5 5L5 2ZM14 0L14 7L21 7L21 0ZM15 1L15 6L20 6L20 1ZM16 2L16 5L19 5L19 2ZM0 14L0 21L7 21L7 14ZM1 15L1 20L6 20L6 15ZM2 16L2 19L5 19L5 16Z" fill="#000000"/></g></g></svg>
