<?xml version="1.0" encoding="UTF-8"?>
<svg xmlns="http://www.w3.org/2000/svg" version="1.1" width="100" height="100" viewBox="0 0 100 100"><rect x="0" y="0" width="100" height="100" fill="#ffffff"/><g transform="scale(1.887)"><g transform="translate(0,0)"><path fill-rule="evenodd" d="M8 0L8 2L9 2L9 1L10 1L10 3L9 3L9 4L8 4L8 9L9 9L9 5L10 5L10 7L11 7L11 6L12 6L12 7L13 7L13 8L12 8L12 9L13 9L13 10L9 10L9 11L8 11L8 10L5 10L5 11L8 11L8 12L4 12L4 11L3 11L3 10L4 10L4 9L3 9L3 8L0 8L0 12L1 12L1 14L0 14L0 15L2 15L2 12L3 12L3 15L4 15L4 14L5 14L5 16L3 16L3 19L4 19L4 20L2 20L2 19L1 19L1 20L0 20L0 23L1 23L1 24L0 24L0 28L1 28L1 29L0 29L0 32L1 32L1 34L0 34L0 35L2 35L2 31L1 31L1 30L2 30L2 29L3 29L3 30L5 30L5 31L3 31L3 33L4 33L4 34L3 34L3 35L4 35L4 36L2 36L2 37L1 37L1 38L2 38L2 39L1 39L1 40L0 40L0 41L1 41L1 42L0 42L0 43L1 43L1 44L3 44L3 45L4 45L4 44L3 44L3 43L7 43L7 44L6 44L6 45L7 45L7 44L8 44L8 43L7 43L7 42L6 42L6 41L8 41L8 39L9 39L9 40L10 40L10 41L11 41L11 42L12 42L12 41L11 41L11 40L13 40L13 42L14 42L14 41L15 41L15 40L14 40L14 39L16 39L16 41L17 41L17 39L16 39L16 37L17 37L17 38L18 38L18 37L19 37L19 38L20 38L20 40L19 40L19 39L18 39L18 40L19 40L19 42L18 42L18 43L17 43L17 42L16 42L16 43L17 43L17 44L16 44L16 45L14 45L14 49L15 49L15 53L16 53L16 52L17 52L17 51L18 51L18 53L19 53L19 51L18 51L18 49L19 49L19 48L20 48L20 49L21 49L21 48L20 48L20 47L19 47L19 46L20 46L20 44L22 44L22 46L23 46L23 47L22 47L22 48L23 48L23 51L24 51L24 53L26 53L26 52L28 52L28 53L29 53L29 52L28 52L28 51L30 51L30 49L31 49L31 51L32 51L32 53L34 53L34 52L33 52L33 51L34 51L34 49L33 49L33 48L36 48L36 49L35 49L35 52L36 52L36 53L37 53L37 52L38 52L38 51L39 51L39 52L40 52L40 53L42 53L42 52L43 52L43 53L44 53L44 52L45 52L45 53L48 53L48 52L50 52L50 53L51 53L51 52L50 52L50 50L51 50L51 49L50 49L50 47L51 47L51 45L52 45L52 48L53 48L53 45L52 45L52 44L50 44L50 43L51 43L51 41L52 41L52 43L53 43L53 41L52 41L52 39L53 39L53 38L52 38L52 39L51 39L51 40L50 40L50 33L49 33L49 34L48 34L48 35L47 35L47 34L46 34L46 33L47 33L47 32L49 32L49 30L48 30L48 29L50 29L50 31L51 31L51 32L52 32L52 31L53 31L53 30L52 30L52 31L51 31L51 29L52 29L52 27L53 27L53 26L52 26L52 27L51 27L51 28L50 28L50 27L49 27L49 26L50 26L50 25L51 25L51 24L50 24L50 23L51 23L51 22L52 22L52 23L53 23L53 22L52 22L52 20L53 20L53 17L52 17L52 16L53 16L53 12L50 12L50 11L51 11L51 9L52 9L52 11L53 11L53 8L51 8L51 9L49 9L49 8L44 8L44 7L45 7L45 6L44 6L44 7L43 7L43 3L44 3L44 4L45 4L45 3L44 3L44 1L43 1L43 0L41 0L41 4L40 4L40 3L39 3L39 4L38 4L38 2L39 2L39 1L40 1L40 0L38 0L38 2L35 2L35 3L34 3L34 5L32 5L32 1L31 1L31 0L30 0L30 1L31 1L31 3L30 3L30 2L28 2L28 1L29 1L29 0L27 0L27 2L26 2L26 0L23 0L23 1L24 1L24 2L23 2L23 3L24 3L24 2L26 2L26 4L24 4L24 8L22 8L22 7L23 7L23 4L22 4L22 3L21 3L21 2L20 2L20 1L21 1L21 0L18 0L18 3L16 3L16 5L15 5L15 6L14 6L14 7L13 7L13 6L12 6L12 5L11 5L11 3L13 3L13 5L14 5L14 2L15 2L15 0L13 0L13 1L11 1L11 0ZM34 0L34 1L36 1L36 0ZM13 1L13 2L14 2L14 1ZM16 1L16 2L17 2L17 1ZM27 2L27 3L28 3L28 2ZM42 2L42 3L43 3L43 2ZM18 3L18 5L19 5L19 8L18 8L18 6L17 6L17 5L16 5L16 6L15 6L15 7L14 7L14 8L15 8L15 9L14 9L14 10L13 10L13 11L12 11L12 13L11 13L11 15L12 15L12 16L11 16L11 17L10 17L10 18L8 18L8 15L10 15L10 14L8 14L8 15L6 15L6 16L7 16L7 17L4 17L4 19L5 19L5 18L7 18L7 19L6 19L6 20L4 20L4 22L5 22L5 21L6 21L6 22L7 22L7 23L2 23L2 24L1 24L1 26L2 26L2 27L3 27L3 29L4 29L4 27L3 27L3 26L4 26L4 25L2 25L2 24L7 24L7 23L8 23L8 20L9 20L9 19L10 19L10 18L11 18L11 17L13 17L13 18L12 18L12 19L11 19L11 20L10 20L10 21L9 21L9 22L10 22L10 21L11 21L11 22L12 22L12 23L13 23L13 22L15 22L15 21L14 21L14 20L15 20L15 16L14 16L14 15L15 15L15 14L14 14L14 12L15 12L15 13L16 13L16 14L18 14L18 11L19 11L19 8L20 8L20 4L21 4L21 7L22 7L22 4L21 4L21 3ZM29 3L29 9L27 9L27 11L26 11L26 12L27 12L27 11L28 11L28 10L29 10L29 13L27 13L27 14L26 14L26 16L25 16L25 14L24 14L24 12L25 12L25 11L24 11L24 12L23 12L23 11L22 11L22 12L20 12L20 16L19 16L19 15L18 15L18 16L19 16L19 17L18 17L18 18L16 18L16 19L19 19L19 20L23 20L23 22L24 22L24 24L23 24L23 23L22 23L22 24L23 24L23 25L22 25L22 26L23 26L23 27L21 27L21 26L20 26L20 27L21 27L21 28L24 28L24 24L25 24L25 22L26 22L26 24L28 24L28 22L29 22L29 21L30 21L30 22L32 22L32 24L31 24L31 23L29 23L29 27L31 27L31 28L30 28L30 30L29 30L29 29L27 29L27 30L26 30L26 29L25 29L25 30L26 30L26 31L27 31L27 30L29 30L29 31L28 31L28 32L27 32L27 34L26 34L26 32L24 32L24 33L23 33L23 32L22 32L22 31L23 31L23 30L24 30L24 29L23 29L23 30L21 30L21 29L20 29L20 28L19 28L19 24L18 24L18 23L20 23L20 24L21 24L21 21L20 21L20 22L18 22L18 20L16 20L16 23L17 23L17 25L16 25L16 24L15 24L15 23L14 23L14 24L15 24L15 25L14 25L14 26L13 26L13 24L11 24L11 23L10 23L10 24L11 24L11 25L12 25L12 26L11 26L11 27L10 27L10 25L9 25L9 28L12 28L12 29L14 29L14 27L15 27L15 28L17 28L17 29L16 29L16 30L17 30L17 29L18 29L18 30L19 30L19 29L20 29L20 31L18 31L18 32L19 32L19 33L18 33L18 35L17 35L17 34L16 34L16 35L17 35L17 37L18 37L18 35L19 35L19 36L20 36L20 38L23 38L23 37L22 37L22 36L24 36L24 39L22 39L22 40L23 40L23 41L22 41L22 44L23 44L23 46L24 46L24 44L26 44L26 43L27 43L27 42L28 42L28 44L29 44L29 47L31 47L31 49L32 49L32 51L33 51L33 49L32 49L32 47L33 47L33 46L32 46L32 44L33 44L33 43L32 43L32 44L31 44L31 45L30 45L30 43L31 43L31 41L32 41L32 42L33 42L33 41L32 41L32 40L34 40L34 44L35 44L35 45L34 45L34 46L35 46L35 45L36 45L36 46L37 46L37 49L36 49L36 52L37 52L37 49L38 49L38 50L39 50L39 51L40 51L40 52L42 52L42 50L43 50L43 52L44 52L44 45L42 45L42 42L43 42L43 41L42 41L42 39L43 39L43 37L42 37L42 36L44 36L44 34L45 34L45 35L46 35L46 37L44 37L44 39L45 39L45 38L46 38L46 37L47 37L47 35L46 35L46 34L45 34L45 33L46 33L46 32L47 32L47 31L48 31L48 30L47 30L47 31L46 31L46 29L45 29L45 31L46 31L46 32L45 32L45 33L43 33L43 32L44 32L44 30L43 30L43 28L44 28L44 24L43 24L43 25L42 25L42 26L43 26L43 27L42 27L42 28L41 28L41 27L40 27L40 26L39 26L39 25L40 25L40 23L41 23L41 24L42 24L42 23L41 23L41 22L40 22L40 20L41 20L41 21L42 21L42 22L43 22L43 23L46 23L46 24L49 24L49 23L50 23L50 20L52 20L52 18L51 18L51 19L50 19L50 18L49 18L49 17L48 17L48 16L49 16L49 13L48 13L48 11L50 11L50 10L49 10L49 9L46 9L46 10L45 10L45 9L44 9L44 11L45 11L45 12L46 12L46 14L45 14L45 13L44 13L44 14L45 14L45 15L44 15L44 16L45 16L45 17L44 17L44 18L45 18L45 19L44 19L44 20L45 20L45 21L44 21L44 22L43 22L43 20L41 20L41 17L40 17L40 16L38 16L38 15L40 15L40 14L39 14L39 13L40 13L40 12L41 12L41 13L42 13L42 14L43 14L43 13L42 13L42 11L40 11L40 10L41 10L41 9L42 9L42 10L43 10L43 7L42 7L42 6L41 6L41 7L40 7L40 6L39 6L39 5L40 5L40 4L39 4L39 5L38 5L38 4L37 4L37 3L36 3L36 4L35 4L35 9L34 9L34 10L33 10L33 11L32 11L32 8L34 8L34 6L33 6L33 7L32 7L32 5L31 5L31 7L32 7L32 8L31 8L31 9L30 9L30 3ZM36 4L36 9L37 9L37 11L36 11L36 10L34 10L34 12L32 12L32 11L30 11L30 12L32 12L32 13L31 13L31 16L32 16L32 22L33 22L33 20L34 20L34 21L35 21L35 20L36 20L36 22L35 22L35 23L33 23L33 24L32 24L32 27L35 27L35 26L34 26L34 25L35 25L35 24L36 24L36 26L37 26L37 24L38 24L38 25L39 25L39 24L38 24L38 23L39 23L39 22L38 22L38 20L36 20L36 18L37 18L37 19L39 19L39 20L40 20L40 17L39 17L39 18L38 18L38 17L37 17L37 12L38 12L38 13L39 13L39 11L38 11L38 9L37 9L37 4ZM41 4L41 5L42 5L42 4ZM25 5L25 8L28 8L28 5ZM16 6L16 9L17 9L17 6ZM26 6L26 7L27 7L27 6ZM38 6L38 7L39 7L39 6ZM5 8L5 9L7 9L7 8ZM10 8L10 9L11 9L11 8ZM40 8L40 9L41 9L41 8ZM1 9L1 10L3 10L3 9ZM21 9L21 10L20 10L20 11L21 11L21 10L23 10L23 9ZM24 9L24 10L26 10L26 9ZM16 10L16 11L18 11L18 10ZM46 10L46 12L47 12L47 11L48 11L48 10ZM35 11L35 12L34 12L34 14L36 14L36 11ZM8 12L8 13L10 13L10 12ZM16 12L16 13L17 13L17 12ZM22 12L22 13L21 13L21 14L22 14L22 13L23 13L23 12ZM6 13L6 14L7 14L7 13ZM12 13L12 14L13 14L13 13ZM29 13L29 14L28 14L28 15L27 15L27 16L26 16L26 17L25 17L25 16L24 16L24 14L23 14L23 15L22 15L22 16L24 16L24 17L23 17L23 18L22 18L22 19L23 19L23 20L24 20L24 22L25 22L25 21L26 21L26 18L28 18L28 19L27 19L27 22L28 22L28 19L29 19L29 20L30 20L30 16L28 16L28 15L29 15L29 14L30 14L30 13ZM47 13L47 14L46 14L46 15L45 15L45 16L46 16L46 17L45 17L45 18L46 18L46 17L47 17L47 18L48 18L48 17L47 17L47 16L46 16L46 15L48 15L48 13ZM50 13L50 14L51 14L51 15L50 15L50 17L51 17L51 16L52 16L52 13ZM32 14L32 16L33 16L33 14ZM34 15L34 19L35 19L35 18L36 18L36 15ZM1 16L1 18L2 18L2 16ZM20 16L20 17L21 17L21 16ZM42 16L42 18L43 18L43 16ZM20 18L20 19L21 19L21 18ZM24 18L24 20L25 20L25 18ZM7 19L7 20L6 20L6 21L7 21L7 20L8 20L8 19ZM12 19L12 20L11 20L11 21L12 21L12 22L13 22L13 20L14 20L14 19ZM47 19L47 20L46 20L46 21L47 21L47 20L48 20L48 22L47 22L47 23L49 23L49 20L50 20L50 19L49 19L49 20L48 20L48 19ZM1 21L1 22L3 22L3 21ZM36 22L36 24L37 24L37 22ZM52 24L52 25L53 25L53 24ZM5 25L5 28L8 28L8 25ZM25 25L25 28L28 28L28 25ZM45 25L45 28L48 28L48 25ZM6 26L6 27L7 27L7 26ZM12 26L12 28L13 28L13 26ZM16 26L16 27L17 27L17 28L18 28L18 29L19 29L19 28L18 28L18 26ZM26 26L26 27L27 27L27 26ZM46 26L46 27L47 27L47 26ZM36 27L36 30L34 30L34 28L32 28L32 29L31 29L31 30L30 30L30 31L31 31L31 32L32 32L32 33L33 33L33 35L32 35L32 34L30 34L30 33L29 33L29 32L28 32L28 35L27 35L27 36L26 36L26 37L25 37L25 40L26 40L26 41L23 41L23 43L26 43L26 42L27 42L27 41L28 41L28 42L29 42L29 43L30 43L30 40L29 40L29 41L28 41L28 38L29 38L29 39L32 39L32 37L33 37L33 38L34 38L34 40L35 40L35 39L36 39L36 38L37 38L37 39L39 39L39 38L40 38L40 41L41 41L41 42L42 42L42 41L41 41L41 38L42 38L42 37L41 37L41 35L42 35L42 32L40 32L40 30L42 30L42 31L43 31L43 30L42 30L42 29L41 29L41 28L40 28L40 30L39 30L39 31L38 31L38 33L37 33L37 31L36 31L36 30L38 30L38 29L39 29L39 27L38 27L38 29L37 29L37 27ZM5 29L5 30L7 30L7 29ZM9 29L9 30L11 30L11 29ZM32 29L32 30L31 30L31 31L32 31L32 32L33 32L33 33L34 33L34 35L33 35L33 37L34 37L34 38L36 38L36 36L38 36L38 38L39 38L39 37L40 37L40 38L41 38L41 37L40 37L40 36L38 36L38 34L39 34L39 35L41 35L41 34L39 34L39 33L40 33L40 32L39 32L39 33L38 33L38 34L37 34L37 33L36 33L36 31L35 31L35 33L34 33L34 30L33 30L33 29ZM12 30L12 31L13 31L13 32L12 32L12 34L10 34L10 32L11 32L11 31L10 31L10 32L9 32L9 31L6 31L6 32L8 32L8 33L5 33L5 32L4 32L4 33L5 33L5 34L4 34L4 35L6 35L6 36L4 36L4 37L2 37L2 38L7 38L7 39L2 39L2 40L1 40L1 41L2 41L2 43L3 43L3 42L4 42L4 41L6 41L6 40L7 40L7 39L8 39L8 38L9 38L9 39L11 39L11 38L15 38L15 37L14 37L14 35L15 35L15 32L14 32L14 31L15 31L15 30ZM16 31L16 32L17 32L17 31ZM20 32L20 33L21 33L21 32ZM8 33L8 34L9 34L9 35L7 35L7 34L6 34L6 35L7 35L7 36L6 36L6 37L9 37L9 38L10 38L10 37L13 37L13 35L14 35L14 34L13 34L13 35L12 35L12 36L11 36L11 35L10 35L10 34L9 34L9 33ZM24 33L24 34L23 34L23 35L26 35L26 34L25 34L25 33ZM35 33L35 35L34 35L34 37L35 37L35 36L36 36L36 33ZM51 33L51 34L52 34L52 35L51 35L51 36L52 36L52 37L53 37L53 36L52 36L52 35L53 35L53 33ZM20 34L20 35L21 35L21 36L22 36L22 34ZM29 34L29 35L28 35L28 37L30 37L30 38L31 38L31 37L32 37L32 35L30 35L30 34ZM9 35L9 36L10 36L10 35ZM29 35L29 36L30 36L30 35ZM26 37L26 38L27 38L27 37ZM48 37L48 38L49 38L49 37ZM26 39L26 40L27 40L27 39ZM36 40L36 41L35 41L35 44L36 44L36 45L37 45L37 46L38 46L38 47L39 47L39 46L40 46L40 51L41 51L41 50L42 50L42 49L43 49L43 48L42 48L42 47L43 47L43 46L42 46L42 45L41 45L41 44L40 44L40 45L39 45L39 46L38 46L38 44L39 44L39 43L40 43L40 42L38 42L38 41L39 41L39 40ZM44 40L44 43L43 43L43 44L44 44L44 43L45 43L45 44L46 44L46 42L47 42L47 40L46 40L46 42L45 42L45 40ZM48 41L48 42L50 42L50 41ZM9 42L9 44L10 44L10 45L8 45L8 46L10 46L10 45L11 45L11 47L12 47L12 49L13 49L13 47L12 47L12 46L13 46L13 44L15 44L15 43L13 43L13 44L12 44L12 43L11 43L11 44L10 44L10 42ZM20 42L20 43L21 43L21 42ZM37 42L37 43L38 43L38 42ZM48 43L48 44L49 44L49 47L50 47L50 44L49 44L49 43ZM17 44L17 45L16 45L16 46L15 46L15 47L16 47L16 46L17 46L17 45L18 45L18 46L19 46L19 45L18 45L18 44ZM25 45L25 48L28 48L28 45ZM45 45L45 48L48 48L48 45ZM26 46L26 47L27 47L27 46ZM31 46L31 47L32 47L32 46ZM41 46L41 47L42 47L42 46ZM46 46L46 47L47 47L47 46ZM8 47L8 48L10 48L10 50L11 50L11 48L10 48L10 47ZM18 47L18 48L19 48L19 47ZM24 49L24 51L25 51L25 52L26 52L26 51L27 51L27 49L26 49L26 50L25 50L25 49ZM45 49L45 50L46 50L46 52L47 52L47 51L48 51L48 49ZM49 49L49 50L50 50L50 49ZM8 50L8 53L10 53L10 51L9 51L9 50ZM12 50L12 51L13 51L13 50ZM16 50L16 51L17 51L17 50ZM20 50L20 51L21 51L21 52L22 52L22 53L23 53L23 52L22 52L22 50ZM11 52L11 53L12 53L12 52ZM13 52L13 53L14 53L14 52ZM52 52L52 53L53 53L53 52ZM0 0L0 7L7 7L7 0ZM1 1L1 6L6 6L6 1ZM2 2L2 5L5 5L5 2ZM46 0L46 7L53 7L53 0ZM47 1L47 6L52 6L52 1ZM48 2L48 5L51 5L51 2ZM0 46L0 53L7 53L7 46ZM1 47L1 52L6 52L6 47ZM2 48L2 51L5 51L5 48Z" fill="#000000"/></g></g></svg>
